# xmcd
# 
# Track frame offsets:
#     150
#     22855
#     48605
#     72865
#     97347
#     121797
#     143777
#     171607
#     197397
#     219560
#     258872
# 
# Disc length: 3701
# 
# Revision: 1
# Processed by: cddbd v1.5.2PL0 Copyright (c) Steve Scherf et al.
# Submitted via: fre:ac v1.0.31
# 
DISCID=9e0e730b
DTITLE=中島 みゆき - LOVE OR NOTHING
DYEAR=1994
DGENRE=J-POP
TTITLE0=01-空と君のあいだに
TTITLE1=02-もう桟橋に灯りは点らない
TTITLE2=03-バラ色の未来
TTITLE3=04-ひまわり “SUNWARD”
TTITLE4=05-アンテナの街
TTITLE5=06-てんびん秤
TTITLE6=07-流星
TTITLE7=08-夢だったんだね
TTITLE8=09-風にならないか
TTITLE9=10-YOU NEVER NEED ME
TTITLE10=11-眠らないで
EXTD=YEAR: 1994
EXTT0=
EXTT1=
EXTT2=
EXTT3=
EXTT4=
EXTT5=
EXTT6=
EXTT7=
EXTT8=
EXTT9=
EXTT10=
PLAYORDER=
